<?xml version="1.0" standalone="no"?>
<!DOCTYPE svg PUBLIC "-//W3C//DTD SVG 20010904//EN"
 "http://www.w3.org/TR/2001/REC-SVG-20010904/DTD/svg10.dtd">
<svg version="1.0" xmlns="http://www.w3.org/2000/svg"
 width="512.000000pt" height="512.000000pt" viewBox="0 0 512.000000 512.000000"
 preserveAspectRatio="xMidYMid meet">
<metadata>
Created by potrace 1.14, written by Peter Selinger 2001-2017
</metadata>
<g transform="translate(0.000000,512.000000) scale(0.100000,-0.100000)"
fill="#000000" stroke="none">
<path d="M714 4455 c-101 -23 -194 -98 -240 -190 -24 -50 -48 -161 -194 -889
-4 -21 -16 -43 -25 -49 -36 -20 -95 -80 -118 -120 -40 -69 -50 -116 -52 -237
-1 -64 -4 -121 -8 -127 -4 -6 -3 -15 3 -18 8 -5 8 -11 0 -20 -6 -7 -7 -16 -3
-18 11 -7 10 -148 0 -164 -4 -6 -4 -14 1 -17 10 -6 9 -56 -1 -73 -4 -6 -3 -14
2 -17 9 -6 7 -97 -3 -156 -18 -103 -29 -146 -40 -152 -6 -4 -7 -8 -1 -8 6 0 9
-20 6 -47 -4 -55 15 -147 38 -182 9 -14 14 -28 12 -31 -12 -18 -19 -50 -12
-55 10 -6 9 -24 -2 -42 -4 -6 -4 -14 1 -17 10 -6 9 -147 -1 -163 -4 -6 -4 -14
1 -17 10 -6 9 -56 -1 -72 -3 -6 -3 -14 1 -18 11 -12 8 -160 -3 -168 -6 -5 -5
-8 4 -8 10 0 11 -3 2 -14 -7 -8 -8 -17 -4 -19 8 -5 10 -136 3 -162 -1 -5 -1
-12 0 -15 1 -3 3 -52 4 -110 2 -102 22 -210 38 -210 4 0 8 -6 8 -14 0 -8 23
-38 52 -68 28 -29 51 -56 50 -60 -1 -5 1 -7 6 -6 14 3 62 -14 62 -23 0 -5 8
-9 18 -9 10 0 22 -3 25 -7 13 -12 61 -14 442 -15 260 -1 385 -4 394 -12 11 -8
13 -8 8 1 -6 9 2 12 27 11 23 -1 33 -5 29 -12 -5 -8 -2 -7 8 0 19 16 388 16
408 0 11 -8 13 -8 8 1 -6 9 2 12 27 11 23 -1 33 -5 29 -12 -5 -8 -2 -8 8 0 19
15 212 15 221 0 6 -8 8 -7 8 2 0 7 13 12 33 12 18 0 39 -6 46 -12 10 -9 12 -9
7 -1 -9 16 216 16 226 0 6 -9 8 -9 8 1 0 7 13 12 33 12 18 0 39 -6 46 -12 10
-9 12 -10 7 -1 -5 9 28 12 138 11 102 -1 143 -4 139 -12 -3 -6 0 -5 8 1 17 17
49 17 49 1 0 -9 3 -10 8 -2 10 15 372 15 391 0 12 -9 13 -8 6 3 -6 11 -3 13
16 7 168 -51 439 -55 619 -10 50 12 125 13 132 1 6 -9 8 -9 8 1 0 16 62 16 79
0 9 -8 12 -9 7 -1 -4 8 79 11 331 12 186 0 356 3 378 6 203 32 323 88 341 159
3 13 3 68 1 122 -8 166 -7 219 6 223 7 2 27 19 45 37 l32 32 0 112 0 112 -39
39 c-35 36 -39 44 -45 111 -3 40 -6 115 -7 165 0 84 -3 96 -25 122 -27 32
-103 72 -170 90 l-41 11 28 132 c15 73 29 147 32 163 3 17 8 41 11 55 11 51
65 326 71 360 3 19 10 51 15 70 5 19 11 49 13 65 3 17 17 89 32 160 15 72 29
139 31 150 2 11 9 45 15 75 39 184 -27 337 -185 428 -30 17 -176 50 -586 132
-300 60 -560 112 -579 115 -19 3 -37 7 -40 9 -3 2 -22 7 -41 10 -19 3 -67 12
-105 20 -39 8 -82 17 -95 20 -14 2 -106 21 -205 40 -99 20 -193 39 -209 42
-16 3 -32 6 -35 8 -3 2 -23 7 -44 10 -21 3 -71 13 -110 21 -40 8 -85 17 -102
20 -66 11 -92 17 -150 30 -33 7 -78 16 -100 19 -22 4 -56 11 -75 16 -19 5 -53
12 -75 15 -22 4 -80 15 -130 25 -49 11 -101 21 -115 24 -14 3 -50 10 -80 16
-30 6 -66 13 -80 16 -14 2 -45 9 -70 14 -25 6 -56 13 -70 15 -14 3 -59 12
-100 20 -41 8 -86 17 -100 20 -14 3 -47 9 -75 15 -61 13 -92 19 -125 25 -14 2
-104 20 -200 40 -96 20 -188 38 -205 41 -16 2 -39 7 -49 11 -37 11 -121 10
-172 -2z"/>
</g>
</svg>
